<svg xmlns="http://www.w3.org/2000/svg" viewBox="0 0 100 220" fill="none">
  <!-- Glass bottle shape -->
  <path d="M38 15 L38 45 L28 60 L28 200 Q28 210 40 210 L60 210 Q72 210 72 200 L72 60 L62 45 L62 15 Z" fill="#0d9488"/>
  <path d="M38 15 L38 45 L28 60 L28 200 Q28 210 40 210 L60 210 Q72 210 72 200 L72 60 L62 45 L62 15 Z" fill="url(#bj-shine)" opacity="0.3"/>
  <!-- Label -->
  <rect x="30" y="90" width="40" height="60" rx="3" fill="white" opacity="0.9"/>
  <rect x="32" y="92" width="36" height="56" rx="2" fill="none" stroke="#0d9488" stroke-width="1"/>
  <!-- Deer logo placeholder -->
  <circle cx="50" cy="110" r="8" fill="#0d9488" opacity="0.3"/>
  <text x="50" y="114" text-anchor="middle" fill="#0d9488" font-size="8" font-weight="bold">B</text>
  <text x="50" y="135" text-anchor="middle" fill="#0d9488" font-size="7" font-weight="bold" font-family="serif">BORJOMI</text>
  <!-- Bottle cap -->
  <rect x="36" y="10" width="28" height="8" rx="3" fill="#065f46"/>
  <ellipse cx="50" cy="10" rx="14" ry="3" fill="#0d9488"/>
  <defs>
    <linearGradient id="bj-shine" x1="28" y1="0" x2="72" y2="0">
      <stop offset="0%" stop-color="white" stop-opacity="0.4"/>
      <stop offset="30%" stop-color="white" stop-opacity="0.1"/>
      <stop offset="70%" stop-color="white" stop-opacity="0"/>
      <stop offset="100%" stop-color="black" stop-opacity="0.1"/>
    </linearGradient>
  </defs>
</svg>
