<svg xmlns="http://www.w3.org/2000/svg" viewBox="0 0 120 80" fill="none">
  <!-- Chocolate bar -->
  <rect x="10" y="10" width="100" height="60" rx="4" fill="#3b1a08"/>
  <!-- Squares grid -->
  <rect x="15" y="15" width="20" height="22" rx="2" fill="#4a2008"/>
  <rect x="40" y="15" width="20" height="22" rx="2" fill="#4a2008"/>
  <rect x="65" y="15" width="20" height="22" rx="2" fill="#4a2008"/>
  <rect x="90" y="15" width="15" height="22" rx="2" fill="#4a2008"/>
  <rect x="15" y="42" width="20" height="22" rx="2" fill="#4a2008"/>
  <rect x="40" y="42" width="20" height="22" rx="2" fill="#4a2008"/>
  <rect x="65" y="42" width="20" height="22" rx="2" fill="#4a2008"/>
  <rect x="90" y="42" width="15" height="22" rx="2" fill="#4a2008"/>
  <!-- Shine -->
  <rect x="15" y="15" width="90" height="8" rx="2" fill="white" opacity="0.08"/>
  <!-- Wrapper fold -->
  <path d="M5 25 L10 20 L10 60 L5 55" fill="#7c3aed" opacity="0.8"/>
  <path d="M110 20 L115 25 L115 55 L110 60" fill="#7c3aed" opacity="0.8"/>
  <!-- Label -->
  <text x="60" y="38" text-anchor="middle" fill="#d4b896" font-size="6" font-weight="bold" font-family="serif" opacity="0.6">85%</text>
</svg>
