<svg xmlns="http://www.w3.org/2000/svg" viewBox="0 0 100 140" fill="none">
  <!-- Bag shape -->
  <path d="M20 20 Q15 10 25 5 L75 5 Q85 10 80 20 L85 120 Q85 135 70 135 L30 135 Q15 135 15 120 Z" fill="#eab308"/>
  <path d="M20 20 Q15 10 25 5 L75 5 Q85 10 80 20 L85 120 Q85 135 70 135 L30 135 Q15 135 15 120 Z" fill="url(#ly-g)" opacity="0.3"/>
  <!-- Crimped top -->
  <path d="M25 5 L30 12 L35 5 L40 12 L45 5 L50 12 L55 5 L60 12 L65 5 L70 12 L75 5" stroke="#ca8a04" stroke-width="1.5" fill="none"/>
  <!-- Red circle -->
  <circle cx="50" cy="65" r="28" fill="#dc2626"/>
  <!-- Brand text -->
  <text x="50" y="62" text-anchor="middle" fill="#fbbf24" font-size="11" font-weight="bold" font-family="Arial, sans-serif">Lay's</text>
  <!-- Chip illustration -->
  <ellipse cx="50" cy="78" rx="12" ry="6" fill="#f59e0b" opacity="0.8"/>
  <path d="M40 76 Q50 72 60 76" stroke="#d97706" stroke-width="0.5" fill="none"/>
  <!-- Weight -->
  <text x="50" y="120" text-anchor="middle" fill="#713f12" font-size="6" font-family="Arial, sans-serif">140g</text>
  <defs>
    <linearGradient id="ly-g" x1="15" y1="0" x2="85" y2="0">
      <stop offset="0%" stop-color="white" stop-opacity="0.3"/>
      <stop offset="50%" stop-color="white" stop-opacity="0"/>
      <stop offset="100%" stop-color="black" stop-opacity="0.1"/>
    </linearGradient>
  </defs>
</svg>
