<svg xmlns="http://www.w3.org/2000/svg" viewBox="0 0 100 220" fill="none">
  <path d="M38 15 L38 45 L28 60 L28 200 Q28 210 40 210 L60 210 Q72 210 72 200 L72 60 L62 45 L62 15 Z" fill="#84cc16"/>
  <path d="M38 15 L38 45 L28 60 L28 200 Q28 210 40 210 L60 210 Q72 210 72 200 L72 60 L62 45 L62 15 Z" fill="url(#lf-s)" opacity="0.3"/>
  <rect x="30" y="85" width="40" height="55" rx="3" fill="white" opacity="0.9"/>
  <ellipse cx="50" cy="105" r="10" fill="#a3e635" opacity="0.5"/>
  <text x="50" y="125" text-anchor="middle" fill="#4d7c0f" font-size="6" font-weight="bold" font-family="serif">ფეიხოა</text>
  <text x="50" y="135" text-anchor="middle" fill="#4d7c0f" font-size="5" font-family="serif">ლიმონათი</text>
  <rect x="36" y="10" width="28" height="8" rx="3" fill="#3f6212"/>
  <ellipse cx="50" cy="10" rx="14" ry="3" fill="#65a30d"/>
  <defs>
    <linearGradient id="lf-s" x1="28" y1="0" x2="72" y2="0">
      <stop offset="0%" stop-color="white" stop-opacity="0.4"/>
      <stop offset="50%" stop-color="white" stop-opacity="0"/>
      <stop offset="100%" stop-color="black" stop-opacity="0.1"/>
    </linearGradient>
  </defs>
</svg>
