<svg xmlns="http://www.w3.org/2000/svg" viewBox="0 0 80 120" fill="none">
  <!-- Peanut shell - figure 8 shape -->
  <ellipse cx="40" cy="35" rx="20" ry="22" fill="#d4a56a"/>
  <ellipse cx="40" cy="80" rx="22" ry="25" fill="#d4a56a"/>
  <!-- Pinch in middle -->
  <path d="M22 55 Q30 50 40 52 Q50 50 58 55" stroke="#c49458" stroke-width="1" fill="none"/>
  <path d="M22 58 Q30 62 40 60 Q50 62 58 58" stroke="#c49458" stroke-width="1" fill="none"/>
  <!-- Shell texture -->
  <path d="M25 25 Q32 22 38 25 Q44 22 50 25" stroke="#b8845a" stroke-width="0.8" opacity="0.5"/>
  <path d="M28 35 Q35 32 42 35 Q48 32 52 35" stroke="#b8845a" stroke-width="0.8" opacity="0.5"/>
  <path d="M23 70 Q33 67 43 70 Q53 67 57 70" stroke="#b8845a" stroke-width="0.8" opacity="0.5"/>
  <path d="M22 82 Q32 79 42 82 Q52 79 58 82" stroke="#b8845a" stroke-width="0.8" opacity="0.5"/>
  <path d="M25 92 Q35 89 42 92 Q50 89 55 92" stroke="#b8845a" stroke-width="0.8" opacity="0.5"/>
  <!-- Highlight -->
  <ellipse cx="34" cy="30" rx="6" ry="8" fill="white" opacity="0.1"/>
  <ellipse cx="34" cy="72" rx="7" ry="9" fill="white" opacity="0.1"/>
</svg>
