<svg xmlns="http://www.w3.org/2000/svg" viewBox="0 0 100 100" fill="none">
  <!-- Scattered pumpkin seeds -->
  <!-- Seed 1 -->
  <ellipse cx="30" cy="35" rx="8" ry="14" fill="#a3b18a" transform="rotate(-20 30 35)"/>
  <line x1="30" y1="22" x2="30" y2="48" stroke="#6b8256" stroke-width="0.8" transform="rotate(-20 30 35)"/>
  <!-- Seed 2 -->
  <ellipse cx="55" cy="30" rx="7" ry="13" fill="#b5c49e" transform="rotate(15 55 30)"/>
  <line x1="55" y1="18" x2="55" y2="42" stroke="#6b8256" stroke-width="0.8" transform="rotate(15 55 30)"/>
  <!-- Seed 3 -->
  <ellipse cx="70" cy="55" rx="8" ry="14" fill="#a3b18a" transform="rotate(-5 70 55)"/>
  <line x1="70" y1="42" x2="70" y2="68" stroke="#6b8256" stroke-width="0.8" transform="rotate(-5 70 55)"/>
  <!-- Seed 4 -->
  <ellipse cx="35" cy="65" rx="7" ry="12" fill="#b5c49e" transform="rotate(25 35 65)"/>
  <line x1="35" y1="54" x2="35" y2="76" stroke="#6b8256" stroke-width="0.8" transform="rotate(25 35 65)"/>
  <!-- Seed 5 -->
  <ellipse cx="55" cy="70" rx="8" ry="13" fill="#a3b18a" transform="rotate(-10 55 70)"/>
  <line x1="55" y1="58" x2="55" y2="82" stroke="#6b8256" stroke-width="0.8" transform="rotate(-10 55 70)"/>
</svg>
