<svg xmlns="http://www.w3.org/2000/svg" viewBox="0 0 100 100" fill="none">
  <!-- Stack of rice cakes -->
  <!-- Bottom cake -->
  <ellipse cx="50" cy="80" rx="35" ry="10" fill="#e5e0d6"/>
  <rect x="15" y="72" width="70" height="8" fill="#e5e0d6"/>
  <ellipse cx="50" cy="72" rx="35" ry="10" fill="#f5f0e8"/>
  <!-- Texture dots -->
  <circle cx="35" cy="72" r="1.5" fill="#d4cfc5" opacity="0.6"/>
  <circle cx="50" cy="70" r="1" fill="#d4cfc5" opacity="0.6"/>
  <circle cx="60" cy="74" r="1.5" fill="#d4cfc5" opacity="0.6"/>
  <circle cx="42" cy="68" r="1" fill="#d4cfc5" opacity="0.6"/>
  <!-- Middle cake -->
  <ellipse cx="50" cy="60" rx="33" ry="9" fill="#e5e0d6"/>
  <rect x="17" y="53" width="66" height="7" fill="#e5e0d6"/>
  <ellipse cx="50" cy="53" rx="33" ry="9" fill="#f5f0e8"/>
  <circle cx="40" cy="53" r="1" fill="#d4cfc5" opacity="0.6"/>
  <circle cx="55" cy="51" r="1.5" fill="#d4cfc5" opacity="0.6"/>
  <circle cx="48" cy="55" r="1" fill="#d4cfc5" opacity="0.6"/>
  <!-- Top cake -->
  <ellipse cx="50" cy="42" rx="32" ry="8" fill="#e5e0d6"/>
  <rect x="18" y="35" width="64" height="7" fill="#e5e0d6"/>
  <ellipse cx="50" cy="35" rx="32" ry="8" fill="#faf5ed"/>
  <circle cx="38" cy="35" r="1.5" fill="#d4cfc5" opacity="0.5"/>
  <circle cx="52" cy="33" r="1" fill="#d4cfc5" opacity="0.5"/>
  <circle cx="60" cy="36" r="1.5" fill="#d4cfc5" opacity="0.5"/>
  <circle cx="45" cy="31" r="1" fill="#d4cfc5" opacity="0.5"/>
</svg>
