<svg xmlns="http://www.w3.org/2000/svg" viewBox="0 0 100 100" fill="none">
  <!-- Scattered seeds -->
  <!-- Seed 1 -->
  <path d="M30 35 Q28 25 35 20 Q42 25 40 35 Q36 42 30 35 Z" fill="#1c1917" transform="rotate(-15 35 30)"/>
  <line x1="33" y1="22" x2="37" y2="33" stroke="#44403c" stroke-width="0.8" transform="rotate(-15 35 30)"/>
  <!-- Seed 2 -->
  <path d="M50 45 Q48 35 55 30 Q62 35 60 45 Q56 52 50 45 Z" fill="#292524"/>
  <line x1="53" y1="32" x2="57" y2="43" stroke="#44403c" stroke-width="0.8"/>
  <!-- Seed 3 -->
  <path d="M65 60 Q63 50 70 45 Q77 50 75 60 Q71 67 65 60 Z" fill="#1c1917" transform="rotate(20 70 55)"/>
  <line x1="68" y1="47" x2="72" y2="58" stroke="#44403c" stroke-width="0.8" transform="rotate(20 70 55)"/>
  <!-- Seed 4 -->
  <path d="M25 65 Q23 55 30 50 Q37 55 35 65 Q31 72 25 65 Z" fill="#292524" transform="rotate(-10 30 60)"/>
  <line x1="28" y1="52" x2="32" y2="63" stroke="#44403c" stroke-width="0.8" transform="rotate(-10 30 60)"/>
  <!-- Seed 5 -->
  <path d="M48 72 Q46 62 53 57 Q60 62 58 72 Q54 79 48 72 Z" fill="#1c1917" transform="rotate(10 53 67)"/>
  <line x1="51" y1="59" x2="55" y2="70" stroke="#44403c" stroke-width="0.8" transform="rotate(10 53 67)"/>
</svg>
